<?xml version="1.0" encoding="UTF-8" standalone="no"?>
<svg width="189px" height="224px" viewBox="0 0 189 224" version="1.1" xmlns="http://www.w3.org/2000/svg" xmlns:xlink="http://www.w3.org/1999/xlink" xmlns:sketch="http://www.bohemiancoding.com/sketch/ns">
    <!-- Generator: Sketch 3.3.2 (12043) - http://www.bohemiancoding.com/sketch -->
    <title>Shape</title>
    <desc>Created with Sketch.</desc>
    <defs>
        <linearGradient x1="49.9998968%" y1="-1.40979498e-05%" x2="49.9998957%" y2="76.473122%" id="linearGradient-1">
            <stop stop-color="#F68E20" offset="0%"></stop>
            <stop stop-color="#FCC93E" offset="100%"></stop>
        </linearGradient>
    </defs>
    <g id="Page-1" stroke="none" stroke-width="1" fill="none" fill-rule="evenodd" sketch:type="MSPage">
        <g id="with-photo-copy" sketch:type="MSArtboardGroup" transform="translate(-93.000000, -64.000000)" fill="url(#linearGradient-1)">
            <g id="content" sketch:type="MSLayerGroup" transform="translate(0.000000, 9.000000)">
                <g id="logo-copy" transform="translate(93.000000, 55.000000)" sketch:type="MSShapeGroup">
                    <path d="M95.0876483,67.7456042 L78.0771502,32.918946 L73.2626351,32.0670754 C70.7510784,31.8407602 68.3575979,31.5104412 65.9247588,31.2401095 L58.6527402,30.4018472 L51.434499,29.183796 L47.8232351,28.5749652 C46.6241567,28.3599463 45.4048144,28.2037459 44.2283381,27.9065368 L37.1133649,26.3028538 L33.5539299,25.5015966 C32.3649835,25.2632061 31.179934,24.9106841 29.9944948,24.5725746 L22.8814701,22.5563825 L19.3239835,21.5545188 L15.8452144,20.4879937 L14.7918804,20.0022535 L6.76892795,0.592910497 L14.7104351,27.3370482 L14.7922701,175.195292 L13.7159443,176.781446 C13.747899,176.821178 2.53298969,188.17706 0.197183505,190.459689 C3.18844948,189.004806 12.8983732,182.415955 14.0195134,181.552374 C13.7463402,182.703426 11.0118804,192.557682 11.0118804,192.557682 C9.57158351,198.432919 8.15427835,204.315557 6.76892784,210.205595 L3.46629897,223.671546 L8.09114845,210.556949 C9.80305979,204.752995 11.486134,198.941641 13.1446577,193.123275 C13.1446577,193.123275 16.2524412,183.551037 16.8467196,181.45616 L19.6797711,180.556742 L23.2263464,179.522159 L30.3163794,177.45377 C31.4979216,177.105533 32.6763464,176.748726 33.8804907,176.493975 L37.4738289,175.64987 L44.6601155,173.960101 C45.8525691,173.649648 47.0680144,173.49968 48.2709897,173.260511 L51.8857608,172.608053 L55.501701,171.952479 C56.7136392,171.751093 57.8971299,171.478424 59.1324495,171.335468 L62.4541732,170.922959 L66.1901381,170.51824 L69.8883031,170.116638 L70.8126495,170.014971 L71.678932,169.932781 L73.5334701,169.784761 L74.217287,126.091796 L95.0876483,149.693602 L116.074709,126.091796 L116.816029,170.058209 C126.767171,169.710751 165.50126,179.366348 167.916173,179.988812 L171.413258,181.079488 L172.40541,181.39851 L174.626258,188.792124 C176.002256,194.628018 177.403584,200.461186 178.834918,206.286564 L183.126192,223.762696 L180.172336,205.997534 C179.07068,200.100484 177.939019,194.210835 176.780858,188.326639 C176.780858,188.326639 175.609837,181.460056 175.361604,180.143065 C176.600431,181.058453 185.451866,186.366928 188.208148,188.008006 C186.087452,185.522433 178.031375,177.232129 175.623866,175.446147 C175.623866,169.783982 175.725575,164.782844 175.79494,159.783264 L176.040056,144.208803 L176.143713,139.628744 L175.691672,31.3908564 L175.691672,27.5084401 L183.126184,0.592910498 L174.704586,19.5379372 L174.054971,19.7436075 L170.550872,20.8580444 L167.05106,21.8704253 L160.051825,23.8963556 C158.884701,24.2325175 157.724202,24.5939986 156.534087,24.8413483 L152.985173,25.6624713 L145.892023,27.3086127 C144.712429,27.6128334 143.519586,27.7826672 142.332588,27.9984652 L138.768476,28.622098 L131.646489,29.8985782 L124.335111,30.8065658 L120.679423,31.2599753 L118.851773,31.4862906 L118.014328,31.5825037 L112.059084,32.918946 L95.0876483,67.7456042 Z M17.2539464,139.628744 L17.0181835,102.976973 L16.6452495,61.1705905 L17.080534,31.1598669 L17.1612,31.327753 L27.8297629,53.1389318 L33.2078845,64.0215391 C34.7284577,67.1190584 37.8685856,73.4975642 37.8685856,73.4975642 L24.1849856,135.869418 L17.345134,163.696453 L17.2539464,139.628744 L17.2539464,139.628744 Z M17.1682144,25.1054476 L18.1786825,25.4482314 L21.7127876,26.5318957 L28.7833361,28.6883176 C29.9609814,29.0486302 31.1320021,29.4225761 32.3568,29.6964137 L35.9926144,30.593884 L43.2681402,32.385319 C44.4769608,32.7144694 45.7048763,32.8963786 46.9257773,33.1410016 L50.5900392,33.8347493 L57.9263567,35.218739 L65.3304804,36.1863242 C66.6601052,36.349536 67.9975237,36.529108 69.3326041,36.7008895 L68.1631423,38.0782572 L53.4281567,55.4024736 L46.0937876,64.0936016 L40.6498082,70.6933588 C39.241466,67.9277166 37.8311753,65.163243 36.3978928,62.4100656 L30.8198598,51.6287354 L19.5710474,30.1108705 L17.1631485,25.5701534 L17.1682144,25.1054476 L17.1682144,25.1054476 Z M173.21207,159.785211 C173.283384,163.244601 173.385093,166.704381 173.472384,170.165329 L166.876868,135.883441 L152.28334,73.4979537 L152.43493,72.7492827 L156.872728,63.8380719 C158.668033,60.1722326 160.515557,56.5324917 162.268386,52.8471761 L167.564672,41.8079789 L172.230829,31.8754281 L172.488025,62.6722174 C172.666503,76.1081746 172.762757,89.5425738 173.009041,102.977362 L172.759249,139.630691 L173.21207,159.785211 L173.21207,159.785211 Z M70.8722722,126.109428 C70.8796763,127.856067 69.8731052,160.753576 69.8731052,160.753576 L57.6212289,145.049792 L70.8691546,123.886397 L70.8722722,126.109428 L70.8722722,126.109428 Z M21.064732,176.414122 L30.6039711,168.563204 L55.6774515,147.062089 L69.882068,164.53861 C52.137501,165.756272 21.064732,176.414122 21.064732,176.414122 L21.064732,176.414122 L21.064732,176.414122 Z M119.047008,37.4768274 L147.068889,73.2568365 L141.785462,76.9589017 C140.65419,77.7586008 139.511616,78.538434 138.390476,79.3517665 L135.018872,81.7757935 L128.273326,86.6215103 L96.141767,105.885572 L96.141767,95.3531491 L97.4180041,72.357808 L97.5680351,72.1159117 L108.777878,54.1220982 L114.354353,45.1072732 L117.135575,40.5942125 C117.769212,39.5530067 118.411423,38.5180332 119.047008,37.4768274 L119.047008,37.4768274 L119.047008,37.4768274 Z M130.48521,89.8171903 L137.399882,85.2160966 L140.859557,82.9167183 C142.016159,82.156751 143.149379,81.3605576 144.29546,80.5846197 L146.467596,79.1020797 C146.194812,80.3902457 133.29488,141.621564 133.29488,141.621564 L118.770328,119.36165 L97.739499,108.112108 L130.48521,89.8171903 L130.48521,89.8171903 Z M134.065689,147.465249 L152.872553,163.241096 L167.604031,175.157897 C167.098602,174.963523 132.866221,164.53861 121.266297,164.061829 C121.137309,164.056765 121.02313,164.02833 120.899988,164.010411 L134.065689,147.465249 L134.065689,147.465249 Z M171.796713,174.062547 L154.637852,161.144661 L135.379726,144.988247 L149.834524,85.0221121 L163.8252,136.370739 L171.796713,174.062547 L171.796713,174.062547 Z M92.6918351,108.101591 L89.6803052,109.900038 L70.7577031,119.662365 L56.461899,141.304099 L44.4481237,82.9786531 L43.6574412,79.0666327 L45.9012804,80.589294 C48.1914928,82.1614253 50.5136598,83.68954 52.8323196,85.222329 L59.7847918,89.8210856 C60.9394454,90.5935178 62.1174804,91.3320611 63.2834351,92.0900808 L92.6918351,108.101591 L92.6918351,108.101591 Z M40.2924619,85.1202729 L54.3474371,144.590539 L38.7913732,157.931452 L18.5371979,173.156118 L26.3228289,136.358274 L40.2924619,85.1202729 L40.2924619,85.1202729 Z M95.2209278,109.783958 L116.187458,121.526642 L95.5833402,145.39686 L94.9193072,146.122549 L93.9910639,145.091471 L93.2666289,144.276191 L73.8424948,121.374336 L95.2209278,109.783958 Z M119.093381,125.346734 L132.255965,145.049792 L120.098394,161.199974 L119.093381,125.346734 L119.093381,125.346734 Z M169.754734,29.2632596 L164.265551,40.2078017 L158.864437,51.1959708 C157.052765,54.8528509 155.333449,58.5553058 153.564643,62.2320518 L149.488089,70.8444953 L122.10647,36.9817385 L125.051363,36.6214259 L132.364689,35.722787 L139.745041,34.3898253 L143.433074,33.7093216 C144.659431,33.4744367 145.900206,33.2835685 147.097726,32.9633772 L154.341297,31.2140111 L157.962693,30.3379648 C159.17619,30.0738654 160.36007,29.6940765 161.550575,29.3399964 L168.686592,27.2034404 L171.18373,26.4551589 L169.754734,29.2632596 L169.754734,29.2632596 Z M73.5517856,40.4387912 L76.3111856,44.9592529 L81.8303753,53.9990076 L92.8664165,72.0792961 L93.0394392,72.3644299 L94.3141175,95.3531491 L94.3141175,105.891025 L65.3600969,89.0731936 C64.2354495,88.2540182 63.1236619,87.4208198 61.9900515,86.6180045 L55.2055361,81.7715087 C52.9453299,80.1530237 50.6874619,78.5329806 48.4011464,76.9557855 L43.2638536,73.3783689 L49.0199753,66.5285354 L56.2382165,57.7419732 L70.6072825,40.1131466 L72.1781258,38.1896619 L73.5517856,40.4387912 L73.5517856,40.4387912 Z" id="Shape"></path>
                </g>
            </g>
        </g>
    </g>
</svg>